<?xml version="1.0" encoding="utf-8"?>
<!-- Generator: Adobe Illustrator 23.0.6, SVG Export Plug-In . SVG Version: 6.00 Build 0)  -->
<svg version="1.1" id="Layer_1" xmlns="http://www.w3.org/2000/svg" xmlns:xlink="http://www.w3.org/1999/xlink" x="0px" y="0px"
	 viewBox="0 0 385.3 385.3" style="enable-background:new 0 0 385.3 385.3;" xml:space="preserve">
<style type="text/css">
	.st0{fill:#2864F0;}
	.st1{fill:#27488F;}
	.st2{fill:#EDF0F4;}
	.st3{fill:#D6D7D8;}
	.st4{fill:#0A0A0A;}
	.st5{fill:#FFA300;}
	.st6{fill:#FA5D0F;}
	.st7{fill:#F24500;}
	.st8{fill:#E9EDF5;}
	.st9{fill:#CDD2E1;}
	.st10{fill:#1B3B6B;}
</style>
<path class="st0" d="M193,134.6c-0.3,2-0.5,4.1-0.5,6.2c0-2.1-0.2-4.2-0.5-6.2H13.5v211.6h140.1c21.5,0,38.9,17.4,38.9,38.9
	c0-21.5,17.4-38.9,38.9-38.9h140.1V134.6H193z"/>
<path class="st1" d="M193,134.6c-0.3,2-0.5,4.1-0.5,6.2v244.4c0-21.5,17.4-38.9,38.9-38.9h140.1V134.6H193z"/>
<path class="st2" d="M192.5,355.1c0-19.2-15.6-34.8-34.8-34.8H32.5V101.9h125.2c19.2,0,34.8,15.6,34.8,34.8V355.1z"/>
<path class="st3" d="M192.5,355.1c0-19.2,15.6-34.8,34.8-34.8h125.2V101.9H227.2c-19.2,0-34.8,15.6-34.8,34.8V355.1z"/>
<rect x="46.6" y="167.4" class="st4" width="84.5" height="17.8"/>
<rect x="46.6" y="134.6" class="st4" width="127.3" height="17.8"/>
<g>
	<path class="st5" d="M234.3,167.4l-54.7-59.8L297.2,0.1l54.7,59.8L234.3,167.4z"/>
	<path class="st6" d="M179.6,107.7L297.2,0.1l27.6,30.2L207.2,137.8L179.6,107.7z"/>
	<path class="st6" d="M218.3,149.9l-22.7-24.8L313.1,17.6l22.7,24.8L218.3,149.9z"/>
	<path class="st7" d="M195.6,125.1L313.1,17.6l11.6,12.7L207.2,137.8L195.6,125.1z"/>
	<path class="st8" d="M234.3,167.4l-79.5,17.8l24.8-77.6L234.3,167.4z"/>
	<path class="st9" d="M179.6,107.7l27.6,30.2l-51.9,47l-0.5,0.4L179.6,107.7z"/>
	<path class="st1" d="M165.1,153l22.7,24.8l-33,7.4L165.1,153z"/>
	<path class="st10" d="M154.8,185.2l10.3-32.2l11.3,12.4L154.8,185.2z"/>
</g>
</svg>
